<svg width="468" height="468" viewBox="0 0 468 468" fill="none" xmlns="http://www.w3.org/2000/svg">
<path d="M448.5 156V312L390 331.5L329.745 224.25C324.675 215.28 310.44 219.765 312 230.295L331.5 409.5L136.5 331.5L158.925 174.33C163.536 142.186 179.579 112.781 204.113 91.5062C228.646 70.2316 260.027 58.5134 292.5 58.5H448.5L417.69 104.715C436.02 114.66 448.5 133.77 448.5 156ZM78 97.5H147.81C157.56 82.68 169.65 69.615 183.495 58.5H78C67.275 58.5 58.5 67.275 58.5 78C58.5 88.725 67.275 97.5 78 97.5ZM113.88 214.5H39C28.275 214.5 19.5 223.275 19.5 234C19.5 244.725 28.275 253.5 39 253.5H108.225L113.88 214.5ZM58.5 175.5H119.34L120.315 168.87C121.875 157.56 124.605 146.835 128.31 136.5H58.5C47.775 136.5 39 145.275 39 156C39 166.725 47.775 175.5 58.5 175.5Z" fill="#6366F1"/>
</svg>
