<?xml version="1.0" standalone="no"?>
<!DOCTYPE svg PUBLIC "-//W3C//DTD SVG 20010904//EN"
 "http://www.w3.org/TR/2001/REC-SVG-20010904/DTD/svg10.dtd">
<svg version="1.0" xmlns="http://www.w3.org/2000/svg"
 width="700.000000pt" height="700.000000pt" viewBox="0 0 700.000000 700.000000"
 preserveAspectRatio="xMidYMid meet">
<metadata>
Created by potrace 1.14, written by Peter Selinger 2001-2017
</metadata>
<g transform="translate(0.000000,700.000000) scale(0.100000,-0.100000)"
fill="#000000" stroke="none">
<path d="M1105 6118 c-79 -17 -160 -81 -200 -159 -72 -138 -6 -318 143 -391
l47 -23 557 -1 557 -2 63 87 c115 158 258 313 412 446 l58 50 -800 0 c-441 0
-817 -3 -837 -7z"/>
<path d="M4297 6124 c-1 -1 -42 -5 -91 -8 -335 -26 -667 -143 -952 -335 -146
-98 -174 -121 -295 -241 -172 -170 -293 -337 -397 -552 -53 -108 -133 -322
-146 -390 -2 -13 -11 -57 -20 -98 -13 -63 -46 -282 -62 -410 -4 -34 -39 -281
-50 -350 -16 -112 -46 -319 -50 -345 -2 -16 -6 -46 -9 -65 -3 -19 -7 -51 -10
-70 -3 -19 -14 -100 -25 -180 -12 -80 -23 -163 -26 -185 -3 -22 -14 -98 -25
-170 -10 -71 -21 -143 -24 -160 -8 -60 -38 -271 -40 -290 -2 -11 -8 -56 -14
-100 -7 -44 -13 -92 -15 -107 -4 -25 1 -29 77 -59 45 -17 98 -38 117 -46 63
-27 72 -30 345 -138 149 -59 284 -113 300 -120 17 -8 253 -102 525 -211 272
-108 509 -203 525 -210 17 -7 140 -56 275 -110 135 -53 261 -103 280 -111 76
-32 211 -86 295 -118 33 -13 82 -32 108 -44 52 -22 71 -20 63 7 -3 10 -7 46
-11 81 -3 36 -8 79 -10 95 -2 17 -7 58 -10 91 -8 80 -12 123 -24 230 -6 50
-13 115 -16 145 -3 30 -8 71 -10 90 -2 19 -7 62 -10 95 -3 33 -8 71 -10 85 -2
14 -6 57 -10 95 -3 39 -8 81 -10 95 -4 25 -11 90 -20 185 -4 46 -7 72 -20 175
-2 19 -7 62 -10 95 -8 74 -13 126 -20 185 -3 25 -7 65 -10 90 -2 25 -7 65 -9
90 -10 87 -18 165 -21 190 -1 14 -5 48 -9 75 -7 62 -13 119 -21 210 -4 39 -8
77 -10 85 -6 24 -19 172 -17 203 3 68 65 120 144 121 73 1 98 -23 183 -179 12
-22 64 -116 117 -210 123 -219 124 -220 272 -484 69 -123 126 -225 126 -226 0
-2 19 -36 43 -77 24 -40 56 -95 71 -123 114 -206 211 -373 215 -371 3 1 201
67 439 146 l433 144 -4 1230 c-1 677 -6 1245 -10 1261 -36 140 -69 218 -133
318 -56 86 -173 203 -253 252 -48 30 -59 41 -52 54 5 9 106 162 225 340 119
178 216 327 216 330 0 5 -2397 9 -2403 5z"/>
<path d="M781 4940 c-126 -42 -203 -159 -195 -294 2 -28 8 -62 15 -76 6 -14
16 -35 21 -46 19 -40 83 -97 138 -123 l55 -25 483 -1 c266 0 485 2 487 5 1 3
6 28 9 55 12 86 17 118 33 190 8 39 16 79 19 91 2 12 19 71 37 131 l34 111
-543 0 c-482 -1 -548 -3 -593 -18z"/>
<path d="M489 3774 c-25 -7 -67 -32 -93 -55 -139 -122 -137 -321 5 -442 78
-68 76 -67 660 -68 288 0 531 0 540 1 12 0 19 13 24 46 3 25 8 53 10 62 1 10
8 51 14 92 9 68 14 98 26 187 2 15 6 42 9 58 2 17 8 54 11 83 l6 52 -583 -1
c-473 0 -592 -3 -629 -15z"/>
</g>
</svg>
